<svg id="Layer_1" data-name="Layer 1" xmlns="http://www.w3.org/2000/svg" viewBox="0 0 82.34 82.51"><defs><style>.cls-1,.cls-7{fill:none;}.cls-1,.cls-3,.cls-4,.cls-5{stroke:#59295d;}.cls-1,.cls-2,.cls-3,.cls-4,.cls-5,.cls-6{stroke-linecap:round;stroke-linejoin:round;stroke-width:3px;}.cls-2,.cls-4{fill:#fff;}.cls-2,.cls-6{stroke:#92489b;}.cls-3,.cls-6{fill:#59295d;}.cls-5{fill:#92489b;}</style></defs><title>EG Dotcom Icons Byzantium_19</title><rect class="cls-1" x="17.17" y="8.25" width="48" height="66"/><rect class="cls-2" x="27.67" y="63.75" width="3" height="3"/><rect class="cls-3" x="36.67" y="57.75" width="3" height="9"/><rect class="cls-2" x="45.67" y="51.75" width="3" height="15"/><rect class="cls-3" x="54.67" y="45.75" width="3" height="21"/><polyline class="cls-1" points="59.91 32.26 53.91 38.26 47.91 41.26 38.91 53.26 32.91 50.26 26.91 56.26"/><polygon class="cls-4" points="58.6 31.09 60.98 33.42 60.98 31.09 58.6 31.09"/><path class="cls-1" d="M47.79,26.25a11.8,11.8,0,0,1-.38,3A12,12,0,1,1,32.79,14.63a12.33,12.33,0,0,1,3-.38A12,12,0,0,1,47.79,26.25Z"/><path class="cls-5" d="M36.29,14.25V26.93H47.91C47.91,18.93,43.29,14.25,36.29,14.25Z"/><line class="cls-6" x1="23.79" y1="44.93" x2="26.79" y2="44.93"/><line class="cls-6" x1="53.79" y1="20.93" x2="59.79" y2="20.93"/><line class="cls-6" x1="53.79" y1="14.93" x2="59.79" y2="14.93"/><rect class="cls-7" y="0.08" width="82.34" height="82.34"/></svg>