<svg id="Layer_1" data-name="Layer 1" xmlns="http://www.w3.org/2000/svg" viewBox="0 0 82.34 82.51"><defs><style>.cls-1,.cls-3{fill:#92489b;}.cls-1,.cls-2{stroke:#59295d;stroke-linecap:round;stroke-linejoin:round;stroke-width:3px;}.cls-2,.cls-4{fill:none;}</style></defs><title>EG Dotcom Icons Byzantium_17</title><path class="cls-1" d="M39.31,19.21A14.86,14.86,0,0,0,25.9,10.92v15Z"/><polyline class="cls-2" points="24.48 40.92 24.48 70.92 57.48 70.92 57.48 34.92 37.98 34.92"/><rect class="cls-3" x="38.4" y="64.92" width="6" height="4.5"/><rect class="cls-3" x="34.98" y="52.92" width="3" height="3"/><rect class="cls-3" x="28.98" y="40.92" width="3" height="3"/><rect class="cls-3" x="34.98" y="40.92" width="3" height="3"/><rect class="cls-3" x="43.98" y="40.92" width="3" height="3"/><rect class="cls-3" x="49.98" y="40.92" width="3" height="3"/><rect class="cls-3" x="28.98" y="46.92" width="3" height="3"/><rect class="cls-3" x="34.98" y="46.92" width="3" height="3"/><rect class="cls-3" x="43.98" y="46.92" width="3" height="3"/><rect class="cls-3" x="49.98" y="46.92" width="3" height="3"/><rect class="cls-3" x="28.98" y="52.92" width="3" height="3"/><rect class="cls-3" x="43.98" y="52.92" width="3" height="3"/><rect class="cls-3" x="49.98" y="52.92" width="3" height="3"/><rect class="cls-3" x="28.98" y="58.92" width="3" height="3"/><rect class="cls-3" x="34.98" y="58.92" width="3" height="3"/><rect class="cls-3" x="43.98" y="58.92" width="3" height="3"/><rect class="cls-3" x="49.98" y="58.92" width="3" height="3"/><line class="cls-2" x1="38.4" y1="65.59" x2="44.4" y2="65.59"/><polyline class="cls-2" points="50.19 26.59 52.98 29.59 61.98 29.59 71.4 29.59"/><polygon class="cls-2" points="61.9 31.92 61.9 29.59 64.98 29.59 61.9 31.92"/><line class="cls-2" x1="11.4" y1="71.59" x2="71.4" y2="71.59"/><path class="cls-2" d="M25.9,25.92v-15c-7,0-15,6.71-15,15a15,15,0,1,0,28.4-6.71Z"/><rect class="cls-4" y="0.08" width="82.34" height="82.34"/></svg>